<?xml version="1.0" encoding="UTF-8"?>
<svg xmlns="http://www.w3.org/2000/svg" xmlns:xlink="http://www.w3.org/1999/xlink" viewBox="0 0 48 48" width="48px" height="48px">
<g id="surface61054429">
<path style=" stroke:none;fill-rule:nonzero;fill:rgb(100%,100%,100%);fill-opacity:1;" d="M 24 46.558594 C 11.539062 46.558594 1.441406 36.460938 1.441406 24 C 1.441406 11.539062 11.539062 1.441406 24 1.441406 C 36.460938 1.441406 46.558594 11.539062 46.558594 24 C 46.558594 36.460938 36.460938 46.558594 24 46.558594 Z M 24 46.558594 "/>
<path style=" stroke:none;fill-rule:nonzero;fill:rgb(0%,0%,0%);fill-opacity:1;" d="M 21.417969 0.925781 C 10.65625 2.097656 1.996094 10.753906 0.828125 21.285156 C -0.34375 32.285156 5.976562 42.113281 15.570312 45.855469 C 16.269531 46.089844 16.972656 45.621094 16.972656 44.683594 L 16.972656 40.941406 C 16.972656 40.941406 16.039062 41.175781 14.867188 41.175781 C 11.589844 41.175781 10.1875 38.367188 9.953125 36.730469 C 9.71875 35.792969 9.25 35.089844 8.550781 34.390625 C 7.847656 34.15625 7.613281 34.15625 7.613281 33.921875 C 7.613281 33.453125 8.316406 33.453125 8.550781 33.453125 C 9.953125 33.453125 11.125 35.089844 11.589844 35.792969 C 12.761719 37.664062 14.164062 38.132812 14.867188 38.132812 C 15.804688 38.132812 16.503906 37.898438 16.972656 37.664062 C 17.207031 36.027344 17.910156 34.390625 19.3125 33.453125 C 13.929688 32.285156 9.953125 29.242188 9.953125 24.09375 C 9.953125 21.519531 11.125 18.945312 12.761719 17.074219 C 12.527344 16.605469 12.292969 15.433594 12.292969 13.796875 C 12.292969 12.863281 12.292969 11.691406 12.761719 10.753906 C 12.761719 10.289062 13.230469 10.054688 13.464844 10.054688 L 13.695312 10.054688 C 14.867188 10.289062 17.207031 10.988281 19.3125 13.09375 C 20.71875 12.628906 22.355469 12.394531 23.992188 12.394531 C 25.632812 12.394531 27.269531 12.628906 28.671875 13.09375 C 30.777344 10.988281 33.351562 10.289062 34.523438 10.054688 L 34.757812 10.054688 C 35.226562 10.054688 35.460938 10.289062 35.691406 10.753906 C 35.691406 11.691406 35.691406 12.863281 35.691406 13.796875 C 35.691406 15.667969 35.460938 16.605469 35.226562 17.074219 C 36.863281 18.945312 38.03125 21.285156 38.03125 24.09375 C 38.03125 29.242188 34.054688 32.285156 28.671875 33.453125 C 30.078125 34.625 31.011719 36.730469 31.011719 38.835938 L 31.011719 44.917969 C 31.011719 45.621094 31.714844 46.324219 32.652344 46.089844 C 41.308594 42.578125 47.394531 34.15625 47.394531 24.328125 C 47.394531 10.289062 35.460938 -0.710938 21.417969 0.925781 Z M 21.417969 0.925781 "/>
</g>
</svg>
