<svg xmlns="http://www.w3.org/2000/svg" viewBox="0 0 1082.98 742.15"><g style="isolation:isolate"><g id="Layer_2" data-name="Layer 2"><polygon points="1082.94 739.11 879 700.38 758.43 290.88 843.54 1.81 844.17 1.7 1082.94 739.11" style="fill:#64ffda"/><polygon points="325.57 292.02 204.48 703.32 19.76 738.4 0 742.15 1.24 738.34 239.49 2.54 240.4 2.71 325.57 292.02" style="fill:#64ffda"/><polygon points="844.16 0 759.05 289.07 629.95 727.58 626.14 740.5 457.44 739.91 453.81 727.6 453.81 727.59 325.57 292.02 240.4 2.71 401.73 33.35 426.97 38.14 541.88 428.46 657.59 35.43 682.96 30.62 844.16 0" style="fill:#64ffda"/><g style="mix-blend-mode:multiply"><polygon points="1082.98 739.25 879.03 700.52 758.47 291.03 843.58 1.96 844.21 1.84 1082.98 739.25" style="fill:#64ffda"/><polygon points="325.57 291.61 204.48 702.91 19.76 737.99 0 741.74 1.24 737.93 239.49 2.13 240.4 2.3 325.57 291.61" style="fill:#64ffda"/></g></g></g></svg>